# xmcd CD database file
#
# Track frame offsets:
#	150
#	25746
#	51644
#	76376
#	98749
#	125431
#	145233
#	167398
#
# Disc length: 2461 seconds
#
# Revision: 0
# Processed by: cddbd v1.5.2PL0 Copyright (c) Steve Scherf et al.
# Submitted via: CDex 1.51
#
DISCID=62099b08
DTITLE=Grupo Niche - Cielo De Tambores
DYEAR=1991
DGENRE=Salsa
TTITLE0=Cielo de Tambores
TTITLE1=Una Aventura
TTITLE2=Se Pareció Tanto a Ti
TTITLE3=Doña Pastora
TTITLE4=Busca Por Dentro
TTITLE5=Debiera Olvidarla
TTITLE6=Sin Sentimiento
TTITLE7=Cali Ají
EXTD=YEAR: 1991
EXTT0=
EXTT1=
EXTT2=
EXTT3=
EXTT4=
EXTT5=
EXTT6=
EXTT7=
PLAYORDER=
